<svg width="571" height="126" viewBox="0 0 571 126" fill="none" xmlns="http://www.w3.org/2000/svg">
<path d="M502.999 98.9H460.999C460.999 110.498 470.401 119.9 481.999 119.9C493.597 119.9 502.999 110.497 502.999 98.9Z" fill="#F4C44E"/>
<path d="M498.999 98.9H464.999C464.999 108.289 472.61 115.9 481.999 115.9C491.388 115.9 498.999 108.288 498.999 98.9Z" fill="#F9EA80"/>
<path d="M482.999 98.9H480.999V115.9H482.999V98.9Z" fill="#F9DA49"/>
<path d="M494.706 110.193L482.706 98.1925L481.292 99.6067L493.292 111.607L494.706 110.193Z" fill="#F9DA49"/>
<path d="M482.706 99.6061L481.292 98.1919L469.292 110.192L470.706 111.606L482.706 99.6061Z" fill="#F9DA49"/>
<path d="M495.982 79.179L496.379 78.782C497.935 77.226 497.935 74.681 496.379 73.125C494.823 71.569 492.278 71.569 490.722 73.125L490.482 73.365C481.391 67.233 467.375 69.602 457.488 79.489C447.601 89.376 445.232 103.393 451.364 112.484L451.124 112.724C449.568 114.28 449.568 116.825 451.124 118.381C452.68 119.937 455.225 119.937 456.781 118.381L457.178 117.984C462.726 121.294 469.895 121.631 476.817 119.229C467.73 116.918 460.999 108.706 460.999 98.9H497.201C499.634 91.952 499.305 84.749 495.982 79.179Z" fill="#F9D70B"/>
<path d="M7.99102 45.384C7.93702 45.816 7.66702 47.274 7.23502 49.758C7.07302 50.568 6.64102 50.946 5.88502 50.946C4.21102 51 2.80702 51 1.67302 50.946C0.161023 50.892 0.539023 49.758 0.755023 48.192C2.05102 40.848 2.80702 36.258 3.13102 34.368C5.07502 23.136 5.88502 18.276 6.37102 15.306C6.69502 13.524 7.12702 13.2 8.85502 13.2H13.769C14.309 13.254 14.741 13.362 14.957 13.524C15.335 13.902 15.551 14.874 15.713 15.738C17.225 24.702 21.059 47.328 21.113 47.76C21.383 49.326 21.329 50.298 20.897 50.676C20.411 51.162 16.577 51 16.145 51C15.605 50.946 15.281 50.838 15.065 50.622C14.579 50.19 14.525 49.38 14.309 47.652C14.201 46.842 14.147 46.194 14.039 45.762C13.985 45.222 11.879 31.128 11.879 30.966C11.825 30.75 11.717 30.48 11.555 30.156C11.231 29.562 10.637 29.778 10.421 30.156C10.043 31.182 9.71902 32.856 7.99102 45.384ZM24.191 50.46C24.299 51.432 19.871 24.756 18.845 18.438C18.683 17.574 18.467 16.602 18.089 16.224C17.873 16.116 17.387 15.954 16.739 15.9C18.413 25.782 21.707 45.816 22.085 47.598C22.409 49.542 22.625 50.784 21.923 51.432C21.329 52.026 19.925 51.972 17.225 51.972C17.333 52.674 17.441 53.052 17.765 53.322C17.981 53.538 18.683 53.7 19.223 53.7C24.245 53.7 24.677 53.43 24.191 50.46ZM8.96302 45.492C8.90902 45.978 8.69302 47.382 8.20702 49.974C7.88302 51.756 7.66702 51.972 3.29302 51.972C3.18502 52.944 3.23902 53.592 4.37302 53.646C5.50702 53.7 6.91102 53.7 8.58502 53.646C9.34102 53.646 9.77302 53.268 9.93502 52.458C10.367 49.974 10.637 48.516 10.691 48.084C11.285 43.818 11.717 40.848 12.041 38.688C11.879 37.716 11.771 36.798 11.609 35.88C11.447 34.854 11.285 33.342 11.177 32.586C11.177 32.208 10.799 32.208 10.745 32.532L10.313 35.88L8.96302 45.492ZM27.5896 15.9V48.138C27.5896 51 27.7516 51.108 30.6136 51.108C31.9096 51.108 34.3396 51.54 34.9336 49.812C35.0416 49.434 35.2036 49.002 35.4736 48.192C38.3896 39.714 39.3076 36.744 39.5236 35.934C39.7396 35.286 39.9016 34.638 40.1176 33.99C40.3336 33.234 41.1436 33.504 41.4136 34.152C41.5756 34.584 41.6296 35.34 41.6296 36.474V48.192C41.6296 51.108 41.6836 51.108 44.7076 51.108H46.5976C48.2716 50.892 48.0556 49.542 48.0556 47.814V16.224C48.0556 14.55 48.1636 13.254 46.9216 13.2H41.7916C41.1436 13.2 40.6576 13.578 40.4416 14.334C40.3336 14.712 40.1176 15.414 39.7936 16.386L35.7976 29.886C35.6896 30.21 35.5816 30.48 35.4736 30.696C35.2036 31.344 34.5016 31.344 34.2856 30.696C34.0156 29.832 34.0156 29.454 34.0156 27.672C33.9616 19.626 33.9616 15.684 33.9616 15.9C33.9616 13.254 33.8536 13.146 31.2076 13.146C30.2896 13.146 29.4256 13.146 28.6156 13.254C27.4816 13.308 27.5896 14.658 27.5896 15.9ZM34.9336 15.846L34.9876 24.648V27.726C34.9876 28.266 35.3116 28.266 35.4736 27.726L36.2836 24.81L36.6616 23.514V18.6C36.6616 16.332 36.6076 15.954 34.9336 15.846ZM49.6217 15.9H49.0276V47.814C49.0276 49.488 49.4056 51.756 46.6516 52.08H44.3296C44.4376 53.808 44.8696 53.808 47.4076 53.808C50.7016 53.808 50.7557 52.998 50.7557 49.812V18.924C50.7557 17.25 50.8637 15.9 49.6217 15.9ZM40.3336 36.474L39.1996 40.308C38.6596 42.198 37.6336 44.79 36.3916 48.516L35.8516 50.136C35.0416 52.62 31.8016 52.08 30.6136 52.08H30.2896C30.3976 53.754 30.9376 53.808 33.3136 53.808C36.0136 53.808 36.6616 52.944 37.3636 50.892C39.0916 45.816 39.7936 43.71 40.6576 40.686L40.7656 36.528C40.7656 36.204 40.4416 36.15 40.3336 36.474ZM82.9557 16.224V47.922C82.9557 49.434 83.0637 50.838 81.8217 51C80.4177 51.162 79.0137 51.162 77.5557 51C76.4757 50.892 76.5837 49.65 76.5837 48.3L76.6377 40.848C76.6917 38.202 76.5297 37.014 75.8817 37.014C75.3957 37.014 75.1257 37.716 74.8017 39.282L73.6137 45.33C73.2357 47.166 72.9117 48.516 72.6957 49.488C72.5337 50.082 72.3177 50.514 72.1017 50.73C71.6697 51.108 69.9957 51.162 68.4837 51.054C67.4037 51 67.0797 50.73 66.8637 49.704C66.5397 48.3 65.7297 44.898 65.5137 44.142C64.7577 40.794 64.3257 38.58 63.6237 36.96C63.4077 36.528 62.8677 36.744 62.8137 36.96C62.6517 37.284 62.5437 37.932 62.5437 38.85V48.03C62.5437 49.542 62.6517 50.838 61.3017 51.054C60.0057 51.162 58.6557 51.162 57.3057 51.054C56.0097 50.892 56.1717 49.758 56.1717 47.976V16.278C56.1717 14.712 56.0097 13.362 57.3597 13.308H63.9477C64.5417 13.308 64.9737 13.686 65.1357 14.388L65.8917 18.114L68.6997 32.316C68.7537 32.586 68.8617 33.126 69.0777 33.774C69.2937 34.422 70.2657 34.476 70.4817 33.612C70.4817 33.612 73.6137 16.98 73.6677 16.872C74.0997 14.442 73.9377 13.308 75.5577 13.308C77.9877 13.254 80.0397 13.254 81.7137 13.308C83.1717 13.362 82.9557 14.658 82.9557 16.224ZM66.4317 16.008L69.0777 29.13C69.2397 29.94 69.4017 31.236 69.5097 31.884C69.5637 32.262 69.8877 32.262 69.9417 31.884L70.4817 28.644L68.1057 16.926C67.9437 16.224 67.5117 16.008 66.9177 16.008H66.4317ZM83.9277 16.008V47.922C83.9277 50.73 84.0897 51.702 81.9297 51.972C81.0657 52.08 80.1477 52.134 79.2837 52.08C79.3377 52.944 79.4997 53.646 80.2557 53.7C81.7137 53.808 82.3077 53.754 83.7117 53.646C85.1157 53.538 85.6557 52.134 85.6557 50.622V18.924C85.6557 16.872 85.8717 16.008 83.9277 16.008ZM63.3537 39.66L63.5157 48.03C63.5697 51.108 63.6777 51.702 61.4097 52.026C60.5997 52.08 59.7357 52.134 58.8717 52.08C58.9257 53.052 59.0877 53.646 60.0057 53.754C61.3557 53.862 62.2197 53.916 63.5157 53.754C65.3517 53.538 65.2437 51.648 65.2437 50.136V47.058C64.9737 45.87 64.7037 44.736 64.6497 44.358L63.6777 39.552C63.6237 39.282 63.3537 39.282 63.3537 39.66ZM75.6117 48.3L75.8817 39.876C75.8817 39.552 75.5577 39.498 75.5037 39.822L74.5857 45.546C74.3157 47.382 73.8837 48.732 73.6677 49.704C73.4517 50.406 73.1817 51.27 72.8037 51.594C72.3177 52.08 71.1297 52.08 69.5097 52.08C69.5097 53.268 70.1577 53.7 71.1837 53.754C72.6957 53.862 74.3697 53.808 74.8017 53.43C75.0177 53.214 75.2337 52.782 75.3957 52.188L75.7737 50.514C75.5577 49.812 75.6117 48.948 75.6117 48.3ZM109.226 22.92L109.28 40.794C109.28 41.388 109.118 42.792 108.686 45.006C108.632 45.492 108.416 45.924 108.146 46.41C103.88 53.268 94.9158 52.836 91.4598 46.356C90.8118 45.168 90.5418 43.764 90.5418 42.036C90.5958 26.16 90.5418 23.298 90.5418 21.786C90.4338 18.6 91.9458 15.9 95.0778 13.632C95.7258 13.146 96.3198 12.876 97.0218 12.768C101.288 12.12 103.988 12.714 106.256 14.874C108.524 16.98 109.226 20.058 109.226 22.92ZM102.152 43.008C102.368 42.522 102.476 41.82 102.476 40.956V22.704C102.476 21.948 102.368 21.354 102.206 20.814C101.342 18.168 97.3458 18.492 96.9678 21.246C96.9138 21.57 96.9138 22.11 96.9138 22.974V40.578C96.9138 41.658 96.9678 42.468 97.1838 42.9C98.0478 45.114 101.18 45.168 102.152 43.008ZM111.98 40.956L111.926 25.62C111.926 23.46 111.548 21.138 110.306 19.248C110.036 18.762 109.712 18.978 109.82 19.464C110.09 20.544 110.198 21.732 110.198 22.92L110.252 40.794C110.252 42.468 109.874 45.222 108.956 46.95C106.364 51.108 101.99 52.728 97.9398 52.242C97.5078 52.188 97.3458 52.674 97.7778 52.782C104.744 54.726 112.034 51.486 111.98 40.956ZM97.9398 21.354C97.8858 22.11 97.8858 22.326 97.8858 22.974V40.578C97.8858 41.712 97.9398 42.306 98.0478 42.522C98.3718 43.386 99.1818 43.71 99.8838 43.602C99.7218 43.224 99.6138 42.36 99.6138 41.226V23.622C99.6138 22.758 99.6138 22.218 99.6678 21.894C99.7758 21.192 100.1 20.652 100.586 20.274C99.6678 19.68 98.0478 19.896 97.9398 21.354ZM135.608 15.792V48.03C135.608 50.892 135.446 51 132.53 51C131.612 51 130.91 51 130.424 50.946C129.074 50.838 129.236 49.65 129.236 48.192L129.182 38.796C129.182 37.878 129.128 37.122 128.966 36.582C128.534 35.07 126.212 35.286 124.646 35.394C123.08 35.502 123.242 36.906 123.242 38.418V48.246C123.242 50.784 123.026 51 120.38 51C118.544 51 117.626 51.054 117.194 50.622C116.816 50.19 116.816 49.488 116.816 47.544V15.738C116.816 14.388 116.924 13.632 117.194 13.362C117.734 12.876 120.974 12.93 122 13.038C123.458 13.146 123.242 14.388 123.242 16.008V24.972C123.242 26.7 123.134 27.78 123.728 28.374C124.376 28.968 126.266 28.968 127.67 28.752C129.29 28.59 129.182 26.916 129.182 25.35V20.544C129.182 18.438 129.182 16.818 129.236 15.738C129.236 14.388 129.344 13.632 129.614 13.362C130.1 12.876 133.34 12.93 134.366 13.038C135.824 13.146 135.608 14.388 135.608 15.792ZM124.214 24.972C124.214 26.7 124.214 27.294 124.484 27.564C124.808 27.888 125.186 27.888 125.942 27.888V18.708C125.942 17.088 126.158 15.738 124.7 15.738H124.214V24.972ZM137.066 15.738H136.58V48.03C136.58 51.972 136.58 51.972 132.53 51.972H131.936C131.936 52.89 132.152 53.592 133.124 53.646C133.61 53.7 134.312 53.7 135.23 53.7C137.876 53.7 138.308 52.674 138.308 50.298V18.492C138.308 17.088 138.524 15.738 137.066 15.738ZM125.024 36.366C124.538 36.42 124.214 36.852 124.214 38.418V48.246C124.214 51.972 124.214 51.972 120.38 51.972H119.516C119.57 52.674 119.678 53.052 119.894 53.322C120.326 53.754 121.244 53.7 123.08 53.7C125.564 53.7 125.942 53.16 125.942 50.946V41.118C125.942 39.606 125.78 38.202 127.346 38.094C127.616 38.094 127.886 38.04 128.21 38.04C128.21 37.5 128.156 37.122 128.048 36.852C127.832 36.366 127.4 36.204 125.024 36.366ZM162.503 15.792V48.03C162.503 50.892 162.341 51 159.425 51C158.507 51 157.805 51 157.319 50.946C155.969 50.838 156.131 49.65 156.131 48.192L156.077 38.796C156.077 37.878 156.023 37.122 155.861 36.582C155.429 35.07 153.107 35.286 151.541 35.394C149.975 35.502 150.137 36.906 150.137 38.418V48.246C150.137 50.784 149.921 51 147.275 51C145.439 51 144.521 51.054 144.089 50.622C143.711 50.19 143.711 49.488 143.711 47.544V15.738C143.711 14.388 143.819 13.632 144.089 13.362C144.629 12.876 147.869 12.93 148.895 13.038C150.353 13.146 150.137 14.388 150.137 16.008V24.972C150.137 26.7 150.029 27.78 150.623 28.374C151.271 28.968 153.161 28.968 154.565 28.752C156.185 28.59 156.077 26.916 156.077 25.35V20.544C156.077 18.438 156.077 16.818 156.131 15.738C156.131 14.388 156.239 13.632 156.509 13.362C156.995 12.876 160.235 12.93 161.261 13.038C162.719 13.146 162.503 14.388 162.503 15.792ZM151.109 24.972C151.109 26.7 151.109 27.294 151.379 27.564C151.703 27.888 152.081 27.888 152.837 27.888V18.708C152.837 17.088 153.053 15.738 151.595 15.738H151.109V24.972ZM163.961 15.738H163.475V48.03C163.475 51.972 163.475 51.972 159.425 51.972H158.831C158.831 52.89 159.047 53.592 160.019 53.646C160.505 53.7 161.207 53.7 162.125 53.7C164.771 53.7 165.203 52.674 165.203 50.298V18.492C165.203 17.088 165.419 15.738 163.961 15.738ZM151.919 36.366C151.433 36.42 151.109 36.852 151.109 38.418V48.246C151.109 51.972 151.109 51.972 147.275 51.972H146.411C146.465 52.674 146.573 53.052 146.789 53.322C147.221 53.754 148.139 53.7 149.975 53.7C152.459 53.7 152.837 53.16 152.837 50.946V41.118C152.837 39.606 152.675 38.202 154.241 38.094C154.511 38.094 154.781 38.04 155.105 38.04C155.105 37.5 155.051 37.122 154.943 36.852C154.727 36.366 154.295 36.204 151.919 36.366ZM188.749 22.92L188.803 40.794C188.803 41.388 188.641 42.792 188.209 45.006C188.155 45.492 187.939 45.924 187.669 46.41C183.403 53.268 174.439 52.836 170.983 46.356C170.335 45.168 170.065 43.764 170.065 42.036C170.119 26.16 170.065 23.298 170.065 21.786C169.957 18.6 171.469 15.9 174.601 13.632C175.249 13.146 175.843 12.876 176.545 12.768C180.811 12.12 183.511 12.714 185.779 14.874C188.047 16.98 188.749 20.058 188.749 22.92ZM181.675 43.008C181.891 42.522 181.999 41.82 181.999 40.956V22.704C181.999 21.948 181.891 21.354 181.729 20.814C180.865 18.168 176.869 18.492 176.491 21.246C176.437 21.57 176.437 22.11 176.437 22.974V40.578C176.437 41.658 176.491 42.468 176.707 42.9C177.571 45.114 180.703 45.168 181.675 43.008ZM191.503 40.956L191.449 25.62C191.449 23.46 191.071 21.138 189.829 19.248C189.559 18.762 189.235 18.978 189.343 19.464C189.613 20.544 189.721 21.732 189.721 22.92L189.775 40.794C189.775 42.468 189.397 45.222 188.479 46.95C185.887 51.108 181.513 52.728 177.463 52.242C177.031 52.188 176.869 52.674 177.301 52.782C184.267 54.726 191.557 51.486 191.503 40.956ZM177.463 21.354C177.409 22.11 177.409 22.326 177.409 22.974V40.578C177.409 41.712 177.463 42.306 177.571 42.522C177.895 43.386 178.705 43.71 179.407 43.602C179.245 43.224 179.137 42.36 179.137 41.226V23.622C179.137 22.758 179.137 22.218 179.191 21.894C179.299 21.192 179.623 20.652 180.109 20.274C179.191 19.68 177.571 19.896 177.463 21.354ZM213.242 45.762C213.35 47.166 213.35 48.516 213.188 49.812C213.08 51.108 211.784 51 210.65 51H198.932C198.176 51 197.258 51 196.772 50.568C196.286 50.136 196.34 49.434 196.34 47.436V16.008C196.34 13.308 196.394 13.2 199.04 13.2H210.704C211.946 13.2 212.648 13.362 212.918 13.578C213.404 14.064 213.35 16.764 213.242 18.006C213.134 19.302 212 19.194 210.434 19.194H205.088C203.306 19.248 202.82 19.788 202.712 21.462C202.658 23.298 202.658 25.08 202.766 26.808C202.766 27.51 202.982 28.05 203.252 28.374C203.9 28.968 205.088 28.914 206.762 28.914C207.626 28.914 208.274 28.914 208.652 28.968C209.948 28.968 210.272 29.346 210.326 30.642C210.38 31.776 210.38 32.91 210.272 34.044C210.272 34.8 209.84 35.178 209.084 35.232C208.274 35.286 207.032 35.286 205.466 35.286C203.414 35.286 202.874 35.556 202.766 37.878C202.658 39.174 202.658 40.632 202.712 42.306C202.82 44.034 203.306 44.574 205.088 44.628H210.38C212 44.682 213.08 44.52 213.242 45.762ZM214.322 18.06C214.268 20.382 212.81 20.166 210.434 20.166H205.088C203.954 20.22 203.792 20.328 203.738 21.516C203.684 23.352 203.684 24.81 203.738 26.754C203.792 27.942 204.008 27.888 205.412 27.942C205.358 26.7 205.358 24.972 205.412 23.676C205.52 22.002 205.466 21.894 207.248 21.894H212.486C214.322 21.894 215.51 21.408 215.618 19.896C215.726 18.654 215.834 16.764 215.348 16.278C215.132 16.116 214.97 16.008 214.322 15.954V18.06ZM211.244 34.098C211.136 35.934 210.974 36.258 209.138 36.258H205.466C204.278 36.258 203.792 36.744 203.738 37.932C203.63 39.066 203.63 40.362 203.684 42.252C203.738 43.494 203.9 43.602 205.088 43.656H205.358C205.358 42.522 205.304 40.902 205.358 39.984C205.466 37.662 205.466 37.986 207.518 37.986C209.084 37.986 210.326 38.04 211.136 37.986C211.892 37.932 212.702 37.446 212.756 36.69C212.864 35.502 212.864 34.476 212.81 33.342C212.756 32.046 212.648 31.668 211.352 31.668C211.352 32.532 211.298 33.342 211.244 34.098ZM215.78 48.462C215.78 47.544 215.132 47.382 214.268 47.382C214.322 48.246 214.268 49.11 214.16 49.92C213.944 52.134 212.702 51.972 210.65 51.972H199.04C199.094 52.674 199.202 52.998 199.472 53.268C199.958 53.7 200.876 53.7 201.632 53.7L212 53.646C215.348 53.592 215.78 52.566 215.78 48.462ZM251.586 39.12C251.532 39.822 251.532 40.848 251.532 42.09C251.586 44.25 250.884 46.14 249.426 47.868C246.294 51.594 243.864 51.108 233.604 51C233.01 51 232.578 50.838 232.308 50.568C231.93 50.136 231.93 49.326 231.93 47.544V15.738C231.93 14.442 232.038 13.632 232.254 13.416C232.794 12.876 233.982 12.984 238.086 13.038C239.49 13.038 240.624 13.038 241.488 12.984C244.026 12.93 246.078 13.632 247.806 15.09C251.316 18.114 252.45 25.404 249.156 29.778C248.4 30.804 248.4 31.236 249.264 32.262C250.884 34.098 251.64 36.42 251.586 39.12ZM238.842 21.138C238.464 23.784 238.14 29.022 241.92 27.78C242.622 27.564 243.108 27.186 243.432 26.646C244.458 24.864 244.242 23.028 243.918 21.678C243.594 20.22 242.568 19.572 241.11 19.464C239.706 19.356 239.058 19.788 238.842 21.138ZM241.056 20.436C240.084 20.382 239.814 20.49 239.652 21.894C239.22 25.242 239.706 27.132 241.218 26.97C241.164 26.052 241.218 24.972 241.218 23.244C241.218 21.462 242.244 21.516 242.676 21.354C242.352 20.76 241.812 20.49 241.056 20.436ZM249.912 30.372C249.48 31.02 249.372 30.912 249.966 31.614L250.506 32.208C250.614 32.1 250.668 32.046 251.1 31.506C252.774 29.292 253.206 25.674 252.504 22.542C252.396 21.948 252.18 21.732 252.018 21.786C251.91 21.84 252.018 22.056 252.072 22.65C252.18 25.404 251.532 28.266 249.912 30.372ZM243.864 42.846C244.89 40.902 245.052 38.85 244.242 36.69C243.648 35.016 241.542 33.774 240.03 34.476C238.572 35.232 238.788 35.934 238.788 39.606C238.788 43.602 238.518 44.412 240.408 44.52C242.082 44.574 243.216 44.034 243.864 42.846ZM240.462 35.34C239.706 35.772 239.76 35.61 239.76 39.606C239.76 43.656 239.544 43.494 240.462 43.548C240.84 43.548 241.11 43.548 241.38 43.494V41.766V38.472C241.38 37.608 241.488 37.014 241.704 36.69C242.028 36.258 242.244 36.042 242.568 35.934C242.19 35.286 241.11 35.016 240.462 35.34ZM252.18 36.258C252.288 36.798 252.558 38.364 252.558 39.174C252.504 39.822 252.504 40.848 252.504 42.09C252.558 44.412 251.802 46.572 250.182 48.516C246.672 52.674 243.756 52.08 233.604 51.972C233.712 53.052 234.306 53.646 235.548 53.646C245.808 53.646 247.914 53.754 251.424 49.596C252.504 48.3 253.746 46.41 253.692 44.25C253.692 43.008 253.53 41.334 253.53 40.416C253.53 38.742 253.206 37.392 252.828 36.69C252.45 36.042 252.126 36.042 252.18 36.258ZM275.885 47.76C275.831 47.328 271.997 24.702 270.485 15.738C270.323 14.874 270.107 13.902 269.729 13.524C269.513 13.362 269.081 13.254 268.541 13.2H263.627C261.899 13.2 261.467 13.524 261.143 15.306C260.657 18.276 256.823 40.848 255.527 48.192C255.311 49.758 254.933 50.892 256.445 50.946C257.579 51 258.983 51 260.657 50.946C261.413 50.946 261.845 50.568 262.007 49.758C262.439 47.274 262.709 45.816 262.763 45.384C263.087 42.63 263.519 42.522 266.327 42.522C266.327 42.522 266.489 42.522 266.759 42.576C268.649 42.63 268.757 45.222 268.811 45.762C268.919 46.194 268.973 46.842 269.081 47.652C269.297 49.38 269.351 50.19 269.837 50.622C270.053 50.838 270.377 50.946 270.917 51C271.349 51 275.183 51.162 275.669 50.676C276.101 50.298 276.155 49.326 275.885 47.76ZM279.071 50.46C279.125 50.46 273.617 18.546 273.617 18.492C273.455 17.628 273.239 16.656 272.861 16.278C272.537 16.062 272.375 15.954 271.511 15.954C271.889 18.168 272.213 20.166 272.537 21.894C273.023 25.026 275.993 42.522 276.425 44.952C276.695 46.734 276.803 47.382 276.857 47.598C277.181 49.596 277.289 50.838 276.911 51.27C276.263 52.026 275.129 52.026 272.591 52.026C272.375 52.026 272.159 51.972 271.997 51.972C272.105 52.674 272.213 53.052 272.537 53.322C272.753 53.538 273.077 53.7 273.617 53.7C277.991 53.7 278.261 53.7 278.963 53.106C279.395 52.728 279.341 52.026 279.071 50.46ZM267.407 35.88C267.299 36.582 264.275 36.636 264.275 35.826C264.275 35.664 264.275 35.394 264.329 35.124C264.491 32.856 264.815 31.182 265.193 30.156C265.409 29.778 266.003 29.562 266.327 30.156C266.489 30.48 266.597 30.75 266.651 30.966C266.651 31.128 267.245 33.99 267.353 34.962C267.407 35.448 267.407 35.772 267.407 35.88ZM266.327 35.34V35.07C266.273 34.53 266.003 33.18 265.841 32.316C265.787 32.1 265.787 31.992 265.733 31.83C265.571 32.64 265.409 33.72 265.301 35.178V35.34C265.301 35.34 265.301 35.34 265.301 35.394H265.787C266.003 35.394 266.219 35.394 266.327 35.34ZM266.705 43.602H266.597L266.543 43.548H266.327C265.463 43.548 264.437 43.548 264.221 43.71C263.951 43.926 263.789 45.06 263.735 45.492C263.735 45.816 263.573 46.464 263.411 47.652L262.979 49.974C262.763 51.216 261.899 51.918 260.657 51.918C259.847 51.972 259.037 51.972 258.335 51.972H258.065C257.957 52.944 258.011 53.592 259.145 53.646C260.279 53.7 260.549 53.646 262.223 53.646C264.005 53.646 264.437 52.242 264.599 51.432C265.031 49.002 265.085 48.516 265.139 48.084C265.463 45.6 265.571 45.276 267.731 45.222C267.461 43.602 266.921 43.602 266.705 43.602ZM300.868 25.08V28.752C300.706 32.37 298.438 35.34 295.036 36.636C294.496 36.852 293.74 36.96 292.768 37.014C291.526 37.014 290.716 37.068 290.446 37.122C288.61 37.338 288.88 38.634 288.88 40.362V48.84C288.88 49.812 288.718 50.46 288.502 50.676C288.016 51.162 285.37 51.108 283.696 51C282.4 50.892 282.508 49.704 282.508 48.408V15.792C282.508 13.146 282.562 13.092 285.262 13.092H288.394H291.472C294.712 13.092 300.274 14.496 300.814 21.03C300.868 21.192 300.868 22.542 300.868 25.08ZM294.766 27.726C295.252 24.054 295.144 19.896 291.148 19.572C288.286 19.356 288.88 20.544 288.88 25.026C288.934 28.104 288.934 25.89 288.934 29.346C288.988 30.21 289.474 30.75 290.446 30.912C292.498 31.236 294.442 29.886 294.766 27.726ZM303.352 23.73C303.19 21.948 302.704 20.598 302.218 19.896C301.84 19.356 301.624 19.464 301.678 20.004C301.732 20.328 301.786 20.652 301.786 20.976C301.84 21.408 301.84 22.434 301.84 25.08V28.752C301.84 32.694 299.194 36.096 295.414 37.554C294.766 37.77 293.956 37.932 292.822 37.986H292.768C290.23 37.986 289.852 38.202 289.852 40.794V48.84C289.852 50.028 289.636 50.946 289.204 51.378C288.664 51.918 287.314 52.08 285.208 52.026C285.262 52.944 285.424 53.592 286.396 53.7C287.53 53.754 288.61 53.754 289.636 53.646C290.824 53.538 291.58 52.62 291.58 51V43.062C291.58 39.876 291.31 39.93 293.146 39.714C294.334 39.552 296.71 38.958 297.412 38.634C300.598 37.068 303.568 34.26 303.568 28.752V27.78C303.568 25.242 303.406 23.892 303.352 23.73ZM292.498 20.976C292.12 20.706 291.634 20.598 291.094 20.544C289.582 20.436 289.906 20.112 289.906 24.108V29.292C289.96 29.724 290.122 29.886 290.608 29.94C290.932 29.994 291.31 29.994 291.634 29.94C291.634 27.51 291.634 29.238 291.58 26.43C291.58 22.866 291.202 21.354 292.498 20.976ZM324.248 45.762C324.356 47.166 324.356 48.516 324.194 49.812C324.086 51.108 322.79 51 321.656 51H309.938C309.182 51 308.264 51 307.778 50.568C307.292 50.136 307.346 49.434 307.346 47.436V16.008C307.346 13.308 307.4 13.2 310.046 13.2H321.71C322.952 13.2 323.654 13.362 323.924 13.578C324.41 14.064 324.356 16.764 324.248 18.006C324.14 19.302 323.006 19.194 321.44 19.194H316.094C314.312 19.248 313.826 19.788 313.718 21.462C313.664 23.298 313.664 25.08 313.772 26.808C313.772 27.51 313.988 28.05 314.258 28.374C314.906 28.968 316.094 28.914 317.768 28.914C318.632 28.914 319.28 28.914 319.658 28.968C320.954 28.968 321.278 29.346 321.332 30.642C321.386 31.776 321.386 32.91 321.278 34.044C321.278 34.8 320.846 35.178 320.09 35.232C319.28 35.286 318.038 35.286 316.472 35.286C314.42 35.286 313.88 35.556 313.772 37.878C313.664 39.174 313.664 40.632 313.718 42.306C313.826 44.034 314.312 44.574 316.094 44.628H321.386C323.006 44.682 324.086 44.52 324.248 45.762ZM325.328 18.06C325.274 20.382 323.816 20.166 321.44 20.166H316.094C314.96 20.22 314.798 20.328 314.744 21.516C314.69 23.352 314.69 24.81 314.744 26.754C314.798 27.942 315.014 27.888 316.418 27.942C316.364 26.7 316.364 24.972 316.418 23.676C316.526 22.002 316.472 21.894 318.254 21.894H323.492C325.328 21.894 326.516 21.408 326.624 19.896C326.732 18.654 326.84 16.764 326.354 16.278C326.138 16.116 325.976 16.008 325.328 15.954V18.06ZM322.25 34.098C322.142 35.934 321.98 36.258 320.144 36.258H316.472C315.284 36.258 314.798 36.744 314.744 37.932C314.636 39.066 314.636 40.362 314.69 42.252C314.744 43.494 314.906 43.602 316.094 43.656H316.364C316.364 42.522 316.31 40.902 316.364 39.984C316.472 37.662 316.472 37.986 318.524 37.986C320.09 37.986 321.332 38.04 322.142 37.986C322.898 37.932 323.708 37.446 323.762 36.69C323.87 35.502 323.87 34.476 323.816 33.342C323.762 32.046 323.654 31.668 322.358 31.668C322.358 32.532 322.304 33.342 322.25 34.098ZM326.786 48.462C326.786 47.544 326.138 47.382 325.274 47.382C325.328 48.246 325.274 49.11 325.166 49.92C324.95 52.134 323.708 51.972 321.656 51.972H310.046C310.1 52.674 310.208 52.998 310.478 53.268C310.964 53.7 311.882 53.7 312.638 53.7L323.006 53.646C326.354 53.592 326.786 52.566 326.786 48.462ZM349.341 15.792V48.03C349.341 50.892 349.179 51 346.263 51C345.345 51 344.643 51 344.157 50.946C342.807 50.838 342.969 49.65 342.969 48.192L342.915 38.796C342.915 37.878 342.861 37.122 342.699 36.582C342.267 35.07 339.945 35.286 338.379 35.394C336.813 35.502 336.975 36.906 336.975 38.418V48.246C336.975 50.784 336.759 51 334.113 51C332.277 51 331.359 51.054 330.927 50.622C330.549 50.19 330.549 49.488 330.549 47.544V15.738C330.549 14.388 330.657 13.632 330.927 13.362C331.467 12.876 334.707 12.93 335.733 13.038C337.191 13.146 336.975 14.388 336.975 16.008V24.972C336.975 26.7 336.867 27.78 337.461 28.374C338.109 28.968 339.999 28.968 341.403 28.752C343.023 28.59 342.915 26.916 342.915 25.35V20.544C342.915 18.438 342.915 16.818 342.969 15.738C342.969 14.388 343.077 13.632 343.347 13.362C343.833 12.876 347.073 12.93 348.099 13.038C349.557 13.146 349.341 14.388 349.341 15.792ZM337.947 24.972C337.947 26.7 337.947 27.294 338.217 27.564C338.541 27.888 338.919 27.888 339.675 27.888V18.708C339.675 17.088 339.891 15.738 338.433 15.738H337.947V24.972ZM350.799 15.738H350.313V48.03C350.313 51.972 350.313 51.972 346.263 51.972H345.669C345.669 52.89 345.885 53.592 346.857 53.646C347.343 53.7 348.045 53.7 348.963 53.7C351.609 53.7 352.041 52.674 352.041 50.298V18.492C352.041 17.088 352.257 15.738 350.799 15.738ZM338.757 36.366C338.271 36.42 337.947 36.852 337.947 38.418V48.246C337.947 51.972 337.947 51.972 334.113 51.972H333.249C333.303 52.674 333.411 53.052 333.627 53.322C334.059 53.754 334.977 53.7 336.813 53.7C339.297 53.7 339.675 53.16 339.675 50.946V41.118C339.675 39.606 339.513 38.202 341.079 38.094C341.349 38.094 341.619 38.04 341.943 38.04C341.943 37.5 341.889 37.122 341.781 36.852C341.565 36.366 341.133 36.204 338.757 36.366ZM375.803 39.12C375.803 41.658 375.803 43.008 375.749 43.17C375.209 49.704 369.647 51.108 366.407 51.108H360.197C357.497 51.108 357.443 51.054 357.443 48.408V15.792C357.443 14.496 357.335 13.308 358.631 13.2C360.305 13.092 362.951 13.038 363.437 13.524C363.653 13.74 363.815 14.388 363.815 15.36V22.974C363.815 24.702 363.545 25.998 365.381 26.214C365.651 26.268 366.461 26.322 367.703 26.322C368.675 26.376 369.431 26.484 369.971 26.7C373.373 27.996 375.641 31.02 375.803 35.502V39.12ZM365.543 25.242C365.597 25.296 365.975 25.296 366.515 25.35V18.06C366.515 17.088 366.353 16.44 366.137 16.224C365.975 16.062 365.435 15.954 364.787 15.9V22.974C364.787 25.188 364.733 25.134 365.543 25.242ZM369.701 36.474C369.701 33.45 367.433 32.1 365.381 32.424C364.409 32.586 363.923 33.126 363.869 33.99C363.869 37.284 363.869 35.934 363.815 39.12C363.815 43.602 363.221 44.844 366.083 44.628C370.079 44.304 369.701 40.146 369.701 36.474ZM376.397 32.694C376.613 33.558 376.721 34.476 376.775 35.448V39.12C376.775 41.766 376.775 42.792 376.721 43.224C376.289 48.678 372.239 52.08 366.407 52.08H360.143C360.197 53.754 360.575 53.808 362.897 53.808H366.407C373.805 53.808 378.503 50.298 378.503 41.82V38.202C378.449 37.122 378.287 36.15 378.017 35.232C377.747 34.206 377.261 33.288 376.721 32.478C376.505 32.154 376.289 32.316 376.397 32.694ZM365.543 33.396C365.057 33.45 364.895 33.612 364.841 33.99C364.841 35.34 364.787 37.446 364.787 39.12C364.787 44.034 364.355 43.764 366.029 43.656C366.191 43.656 366.299 43.656 366.461 43.602C366.461 42.792 366.515 41.766 366.515 40.416C366.569 37.23 366.569 38.58 366.569 35.286C366.623 34.584 366.893 34.098 367.541 33.882C367.001 33.45 366.299 33.234 365.543 33.396ZM399.183 45.762C399.291 47.166 399.291 48.516 399.129 49.812C399.021 51.108 397.725 51 396.591 51H384.873C384.117 51 383.199 51 382.713 50.568C382.227 50.136 382.281 49.434 382.281 47.436V16.008C382.281 13.308 382.335 13.2 384.981 13.2H396.645C397.887 13.2 398.589 13.362 398.859 13.578C399.345 14.064 399.291 16.764 399.183 18.006C399.075 19.302 397.941 19.194 396.375 19.194H391.029C389.247 19.248 388.761 19.788 388.653 21.462C388.599 23.298 388.599 25.08 388.707 26.808C388.707 27.51 388.923 28.05 389.193 28.374C389.841 28.968 391.029 28.914 392.703 28.914C393.567 28.914 394.215 28.914 394.593 28.968C395.889 28.968 396.213 29.346 396.267 30.642C396.321 31.776 396.321 32.91 396.213 34.044C396.213 34.8 395.781 35.178 395.025 35.232C394.215 35.286 392.973 35.286 391.407 35.286C389.355 35.286 388.815 35.556 388.707 37.878C388.599 39.174 388.599 40.632 388.653 42.306C388.761 44.034 389.247 44.574 391.029 44.628H396.321C397.941 44.682 399.021 44.52 399.183 45.762ZM400.263 18.06C400.209 20.382 398.751 20.166 396.375 20.166H391.029C389.895 20.22 389.733 20.328 389.679 21.516C389.625 23.352 389.625 24.81 389.679 26.754C389.733 27.942 389.949 27.888 391.353 27.942C391.299 26.7 391.299 24.972 391.353 23.676C391.461 22.002 391.407 21.894 393.189 21.894H398.427C400.263 21.894 401.451 21.408 401.559 19.896C401.667 18.654 401.775 16.764 401.289 16.278C401.073 16.116 400.911 16.008 400.263 15.954V18.06ZM397.185 34.098C397.077 35.934 396.915 36.258 395.079 36.258H391.407C390.219 36.258 389.733 36.744 389.679 37.932C389.571 39.066 389.571 40.362 389.625 42.252C389.679 43.494 389.841 43.602 391.029 43.656H391.299C391.299 42.522 391.245 40.902 391.299 39.984C391.407 37.662 391.407 37.986 393.459 37.986C395.025 37.986 396.267 38.04 397.077 37.986C397.833 37.932 398.643 37.446 398.697 36.69C398.805 35.502 398.805 34.476 398.751 33.342C398.697 32.046 398.589 31.668 397.293 31.668C397.293 32.532 397.239 33.342 397.185 34.098ZM401.721 48.462C401.721 47.544 401.073 47.382 400.209 47.382C400.263 48.246 400.209 49.11 400.101 49.92C399.885 52.134 398.643 51.972 396.591 51.972H384.981C385.035 52.674 385.143 52.998 385.413 53.268C385.899 53.7 386.817 53.7 387.573 53.7L397.941 53.646C401.289 53.592 401.721 52.566 401.721 48.462ZM441.632 55.374V47.166C441.632 45.6 441.308 45.06 440.282 44.844C439.364 44.628 438.986 44.25 438.878 43.332C438.5 40.2 438.176 37.068 437.69 33.936C436.772 27.834 435.476 21.786 434.396 15.738C434.18 14.874 433.964 13.902 433.586 13.524C433.316 13.362 432.884 13.254 432.29 13.2H427.592C425.702 13.2 425.27 13.524 424.892 15.306C424.406 18.276 420.572 39.336 419.978 42.36C419.762 43.872 419.708 44.412 418.52 44.628C417.872 44.736 417.008 45.06 417.008 47.166V55.374C417.008 58.02 417.062 58.128 419.708 58.128C420.788 58.128 421.544 58.128 422.084 58.074C423.596 57.966 423.38 56.778 423.38 54.726C423.38 54.024 423.434 53.052 423.434 52.944C423.65 50.73 424.244 51 427.646 51H430.454C434.396 51 434.99 50.73 435.206 52.944C435.206 53.052 435.26 54.024 435.26 54.726C435.26 56.778 435.044 57.966 436.556 58.074C437.096 58.128 437.852 58.128 438.932 58.128C441.578 58.128 441.632 58.02 441.632 55.374ZM440.498 43.872L441.632 44.304C440.39 35.124 439.526 29.94 437.474 18.438C437.258 17.574 437.042 16.602 436.664 16.224C436.448 16.116 436.178 16.008 435.422 15.954C437.852 28.914 438.716 34.368 439.85 43.224C439.904 43.71 439.958 43.764 440.498 43.872ZM430.454 44.628H428.348C426.242 44.628 426.35 43.494 426.674 41.496C427.754 34.422 428.294 30.588 428.726 29.616C428.942 29.238 429.59 29.022 429.914 29.616C430.67 31.506 431.21 35.772 432.02 42.252C432.236 43.818 431.534 44.628 430.454 44.628ZM427.646 41.658C427.322 43.602 427.322 43.656 428.348 43.656H428.942C429.428 40.308 429.806 37.662 430.13 35.826C429.806 33.504 429.482 31.614 429.374 30.858C428.996 32.424 428.51 35.934 427.646 41.658ZM442.982 47.544C442.82 47.49 442.712 47.49 442.604 47.436V55.374C442.604 58.992 442.172 59.1 438.932 59.1H437.96C438.014 60.126 438.23 60.72 439.256 60.774C439.796 60.828 440.552 60.828 441.632 60.828C443.576 60.828 444.332 60.018 444.332 58.074V49.866C444.332 48.3 444.008 47.76 442.982 47.544ZM430.454 51.972H427.646C424.298 51.972 424.514 51.702 424.406 52.998C424.406 53.268 424.352 54.078 424.352 54.726C424.352 56.67 424.73 58.83 422.192 59.046C421.598 59.1 420.788 59.1 419.708 59.1C419.762 60.774 420.14 60.828 422.408 60.828C425.162 60.828 426.08 60.18 426.08 56.832V55.644C426.08 53.43 426.404 53.7 430.346 53.7H434.234V52.998C434.126 51.702 434.288 51.972 430.454 51.972ZM452.858 45.384C452.804 45.816 452.534 47.274 452.102 49.758C451.94 50.568 451.508 50.946 450.752 50.946C449.078 51 447.674 51 446.54 50.946C445.028 50.892 445.406 49.758 445.622 48.192C446.918 40.848 447.674 36.258 447.998 34.368C449.942 23.136 450.752 18.276 451.238 15.306C451.562 13.524 451.994 13.2 453.722 13.2H458.636C459.176 13.254 459.608 13.362 459.824 13.524C460.202 13.902 460.418 14.874 460.58 15.738C462.092 24.702 465.926 47.328 465.98 47.76C466.25 49.326 466.196 50.298 465.764 50.676C465.278 51.162 461.444 51 461.012 51C460.472 50.946 460.148 50.838 459.932 50.622C459.446 50.19 459.392 49.38 459.176 47.652C459.068 46.842 459.014 46.194 458.906 45.762C458.852 45.222 456.746 31.128 456.746 30.966C456.692 30.75 456.584 30.48 456.422 30.156C456.098 29.562 455.504 29.778 455.288 30.156C454.91 31.182 454.586 32.856 452.858 45.384ZM469.058 50.46C469.166 51.432 464.738 24.756 463.712 18.438C463.55 17.574 463.334 16.602 462.956 16.224C462.74 16.116 462.254 15.954 461.606 15.9C463.28 25.782 466.574 45.816 466.952 47.598C467.276 49.542 467.492 50.784 466.79 51.432C466.196 52.026 464.792 51.972 462.092 51.972C462.2 52.674 462.308 53.052 462.632 53.322C462.848 53.538 463.55 53.7 464.09 53.7C469.112 53.7 469.544 53.43 469.058 50.46ZM453.83 45.492C453.776 45.978 453.56 47.382 453.074 49.974C452.75 51.756 452.534 51.972 448.16 51.972C448.052 52.944 448.106 53.592 449.24 53.646C450.374 53.7 451.778 53.7 453.452 53.646C454.208 53.646 454.64 53.268 454.802 52.458C455.234 49.974 455.504 48.516 455.558 48.084C456.152 43.818 456.584 40.848 456.908 38.688C456.746 37.716 456.638 36.798 456.476 35.88C456.314 34.854 456.152 33.342 456.044 32.586C456.044 32.208 455.666 32.208 455.612 32.532L455.18 35.88L453.83 45.492ZM489.251 51C490.709 50.946 490.493 49.65 490.493 47.868V15.954C490.493 14.604 490.385 13.794 490.115 13.524C489.629 13.038 488.063 13.146 484.931 13.146H483.149C477.263 13.146 472.403 16.44 472.241 21.354C472.187 22.812 472.187 24.702 472.241 29.67C472.241 30.912 472.781 32.208 473.807 33.504C474.563 34.422 474.725 35.556 474.401 36.906C473.915 38.634 472.943 42.306 471.485 48.03C471.269 48.732 471.161 49.38 471.107 49.866C470.999 50.406 471.323 50.892 471.917 50.946C473.375 51.108 474.995 51.108 476.777 51C477.965 50.838 478.127 49.596 478.451 48.084C478.613 47.274 478.991 45.816 479.531 43.71L480.557 39.336C480.773 38.31 481.043 36.906 482.609 37.122C484.175 37.338 484.067 38.796 484.121 40.47V48.084C484.121 49.704 483.905 50.946 485.417 51C486.659 51.054 487.955 51.054 489.251 51ZM492.815 16.224C492.491 15.9 492.059 15.9 491.465 15.954V47.868C491.465 49.596 491.843 51.864 489.305 51.972C488.495 52.026 487.631 52.026 486.821 52.026C486.821 52.998 487.037 53.646 488.117 53.7C489.359 53.754 489.683 53.7 490.979 53.646C492.761 53.592 493.193 52.944 493.193 50.568V18.654C493.193 17.304 493.085 16.494 492.815 16.224ZM484.067 25.188C484.067 27.564 484.013 29.076 484.013 29.184C484.013 30.102 483.581 30.642 482.663 30.912C480.665 31.398 478.775 30.21 478.343 28.212C478.289 27.888 478.235 27.672 478.235 27.564L478.343 24C478.397 20.436 479.315 19.626 482.717 19.626C484.661 19.626 484.067 20.706 484.067 25.188ZM479.315 24.054L479.207 27.51C479.153 28.752 479.747 29.508 480.935 29.886L481.043 24.54C481.097 22.272 481.475 21.138 482.555 20.598C479.801 20.598 479.423 21.084 479.315 24.054ZM482.501 38.094C481.907 37.986 481.799 38.202 481.529 39.552L480.449 43.926C479.909 46.032 479.585 47.49 479.423 48.3C479.099 49.758 478.829 51.702 476.885 51.972C475.751 52.026 474.779 52.08 473.861 52.026C473.861 52.242 473.807 52.404 473.807 52.566C473.699 53.106 474.023 53.592 474.617 53.646C476.075 53.808 477.695 53.808 479.477 53.7C480.665 53.538 480.827 52.296 481.151 50.784C481.313 49.974 481.691 48.516 482.231 46.41L483.149 42.522V40.47C483.095 38.364 483.041 38.148 482.501 38.094ZM22.139 104.12C22.085 104.822 22.085 105.848 22.085 107.09C22.139 109.25 21.437 111.14 19.979 112.868C16.847 116.594 14.417 116.108 4.15702 116C3.56302 116 3.13102 115.838 2.86102 115.568C2.48302 115.136 2.48302 114.326 2.48302 112.544V80.738C2.48302 79.442 2.59102 78.632 2.80702 78.416C3.34702 77.876 4.53502 77.984 8.63902 78.038C10.043 78.038 11.177 78.038 12.041 77.984C14.579 77.93 16.631 78.632 18.359 80.09C21.869 83.114 23.003 90.404 19.709 94.778C18.953 95.804 18.953 96.236 19.817 97.262C21.437 99.098 22.193 101.42 22.139 104.12ZM9.39502 86.138C9.01702 88.784 8.69302 94.022 12.473 92.78C13.175 92.564 13.661 92.186 13.985 91.646C15.011 89.864 14.795 88.028 14.471 86.678C14.147 85.22 13.121 84.572 11.663 84.464C10.259 84.356 9.61102 84.788 9.39502 86.138ZM11.609 85.436C10.637 85.382 10.367 85.49 10.205 86.894C9.77302 90.242 10.259 92.132 11.771 91.97C11.717 91.052 11.771 89.972 11.771 88.244C11.771 86.462 12.797 86.516 13.229 86.354C12.905 85.76 12.365 85.49 11.609 85.436ZM20.465 95.372C20.033 96.02 19.925 95.912 20.519 96.614L21.059 97.208C21.167 97.1 21.221 97.046 21.653 96.506C23.327 94.292 23.759 90.674 23.057 87.542C22.949 86.948 22.733 86.732 22.571 86.786C22.463 86.84 22.571 87.056 22.625 87.65C22.733 90.404 22.085 93.266 20.465 95.372ZM14.417 107.846C15.443 105.902 15.605 103.85 14.795 101.69C14.201 100.016 12.095 98.774 10.583 99.476C9.12502 100.232 9.34102 100.934 9.34102 104.606C9.34102 108.602 9.07102 109.412 10.961 109.52C12.635 109.574 13.769 109.034 14.417 107.846ZM11.015 100.34C10.259 100.772 10.313 100.61 10.313 104.606C10.313 108.656 10.097 108.494 11.015 108.548C11.393 108.548 11.663 108.548 11.933 108.494V106.766V103.472C11.933 102.608 12.041 102.014 12.257 101.69C12.581 101.258 12.797 101.042 13.121 100.934C12.743 100.286 11.663 100.016 11.015 100.34ZM22.733 101.258C22.841 101.798 23.111 103.364 23.111 104.174C23.057 104.822 23.057 105.848 23.057 107.09C23.111 109.412 22.355 111.572 20.735 113.516C17.225 117.674 14.309 117.08 4.15702 116.972C4.26502 118.052 4.85902 118.646 6.10102 118.646C16.361 118.646 18.467 118.754 21.977 114.596C23.057 113.3 24.299 111.41 24.245 109.25C24.245 108.008 24.083 106.334 24.083 105.416C24.083 103.742 23.759 102.392 23.381 101.69C23.003 101.042 22.679 101.042 22.733 101.258ZM27.4842 80.9V113.138C27.4842 116 27.6462 116.108 30.5082 116.108C31.8042 116.108 34.2342 116.54 34.8282 114.812C34.9362 114.434 35.0982 114.002 35.3682 113.192C38.2842 104.714 39.2022 101.744 39.4182 100.934C39.6342 100.286 39.7962 99.638 40.0122 98.99C40.2282 98.234 41.0382 98.504 41.3082 99.152C41.4702 99.584 41.5242 100.34 41.5242 101.474V113.192C41.5242 116.108 41.5782 116.108 44.6022 116.108H46.4922C48.1662 115.892 47.9502 114.542 47.9502 112.814V81.224C47.9502 79.55 48.0582 78.254 46.8162 78.2H41.6862C41.0382 78.2 40.5522 78.578 40.3362 79.334C40.2282 79.712 40.0122 80.414 39.6882 81.386L35.6922 94.886C35.5842 95.21 35.4762 95.48 35.3682 95.696C35.0982 96.344 34.3962 96.344 34.1802 95.696C33.9102 94.832 33.9102 94.454 33.9102 92.672C33.8562 84.626 33.8562 80.684 33.8562 80.9C33.8562 78.254 33.7482 78.146 31.1022 78.146C30.1842 78.146 29.3202 78.146 28.5102 78.254C27.3762 78.308 27.4842 79.658 27.4842 80.9ZM34.8282 80.846L34.8822 89.648V92.726C34.8822 93.266 35.2062 93.266 35.3682 92.726L36.1782 89.81L36.5562 88.514V83.6C36.5562 81.332 36.5022 80.954 34.8282 80.846ZM49.5162 80.9H48.9222V112.814C48.9222 114.488 49.3002 116.756 46.5462 117.08H44.2242C44.3322 118.808 44.7642 118.808 47.3022 118.808C50.5962 118.808 50.6502 117.998 50.6502 114.812V83.924C50.6502 82.25 50.7582 80.9 49.5162 80.9ZM40.2282 101.474L39.0942 105.308C38.5542 107.198 37.5282 109.79 36.2862 113.516L35.7462 115.136C34.9362 117.62 31.6962 117.08 30.5082 117.08H30.1842C30.2922 118.754 30.8322 118.808 33.2082 118.808C35.9082 118.808 36.5562 117.944 37.2582 115.892C38.9862 110.816 39.6882 108.71 40.5522 105.686L40.6602 101.528C40.6602 101.204 40.3362 101.15 40.2282 101.474ZM73.7782 103.04C73.9402 106.064 73.8862 108.062 73.6702 109.142C72.2122 116.702 62.2762 119.726 56.7142 112.166C55.9042 111.14 55.5802 109.736 55.5802 107.954C55.6342 90.728 55.6342 88.028 55.5262 86.57C55.4182 83.276 57.6862 79.712 61.1962 78.416C61.8982 78.146 62.4922 78.038 63.0322 78.038C64.5982 77.984 65.7322 78.038 66.4342 78.038C66.9202 78.092 67.4602 78.146 67.8922 78.308C69.1882 78.794 70.7542 80.036 72.5362 82.142C74.1562 84.086 73.8862 88.298 73.8322 89.918C73.7782 91.214 73.4002 91.538 72.1042 91.538C70.9702 91.592 69.8902 91.592 68.7562 91.538C67.2442 91.43 67.5142 91.214 67.4602 87.812C67.3522 85.76 66.0022 84.356 64.4902 84.356C63.7342 84.356 63.0862 84.68 62.5462 85.274C61.4662 86.462 61.5742 87.704 61.5742 89.054C61.5202 95.318 61.5202 100.502 61.5742 104.714C61.5742 105.47 61.5742 106.172 61.6822 106.82C61.8442 108.17 62.6542 109.682 64.3282 109.79C66.0022 109.898 67.4062 108.332 67.4602 106.334V103.364C67.5682 102.176 67.8382 101.798 68.9722 101.798C70.1062 101.744 71.3482 101.744 72.5902 101.798C73.3462 101.852 73.7782 102.284 73.7782 103.04ZM74.8042 89.972C74.7502 92.294 74.6962 92.564 70.1602 92.564C70.2142 93.86 70.3762 94.022 71.4562 94.076C72.5902 94.13 73.1842 94.13 74.3182 94.076C75.3982 94.076 76.2622 93.428 76.3162 92.132C76.3702 90.512 76.3702 87.002 75.1282 84.68C75.0202 84.464 74.8042 84.086 74.6422 84.086C74.4262 84.086 74.4802 84.248 74.5882 84.788C74.9662 86.894 74.8582 88.946 74.8042 89.972ZM63.2482 85.922C62.4922 86.786 62.5462 87.65 62.5462 89.054C62.4922 95.318 62.4922 100.502 62.5462 104.714C62.5462 105.47 62.5462 106.118 62.6542 106.658V106.712C62.8162 107.954 63.4642 108.71 64.3282 108.818C64.2742 108.332 64.2742 107.792 64.2742 107.252C64.2202 103.04 64.2742 96.074 64.2742 89.81C64.2742 87.866 64.4362 86.3 65.5702 85.76C65.2462 85.49 64.8682 85.328 64.4902 85.328C64.0042 85.328 63.6802 85.49 63.2482 85.922ZM75.1822 104.336H74.8042C74.9122 106.604 74.8582 108.278 74.6422 109.304C73.4542 115.352 67.9462 118.214 63.1402 117.35C62.5462 117.242 62.4922 117.62 63.0322 117.782C68.3242 119.348 74.2642 116.702 75.6682 111.68C75.9922 110.6 76.5862 108.602 76.4242 105.578C76.4242 104.822 75.9382 104.336 75.1822 104.336ZM96.9573 116C98.6313 116 98.8473 116 99.7113 115.892C100.143 115.784 100.413 115.352 100.305 114.92C100.197 114.434 100.035 113.948 99.8193 113.462C97.6053 108.062 95.5533 102.932 93.6093 98.126C93.0693 96.776 92.5833 95.696 92.2053 94.832C91.8273 94.022 91.8273 93.212 92.2593 92.348C92.2053 92.51 92.4213 92.078 92.9613 91.052C95.7153 85.544 97.4973 82.034 98.1993 80.576C98.4693 80.036 98.7393 79.496 98.9013 79.064C99.0633 78.686 98.8473 78.308 98.4693 78.254C96.9573 78.092 95.1753 78.092 93.1773 78.254C92.2053 78.308 91.9353 79.226 91.2873 80.36C91.0173 80.9 90.6393 81.764 89.9913 82.952C89.4513 84.032 89.0193 84.896 88.6953 85.49C88.3173 86.3 87.9393 86.84 87.6693 87.056C87.2373 87.38 86.5893 87.218 86.4813 86.732C86.1573 85.598 86.2113 84.626 86.2113 82.952V80.792C86.2113 79.496 86.3193 78.308 85.0773 78.254C83.8353 78.2 82.6473 78.2 81.4593 78.254C80.1633 78.308 80.2713 79.55 80.2713 81.224V112.652C80.2713 113.624 80.2713 114.272 80.3253 114.596C80.3793 115.568 80.7033 115.946 81.6213 115.946C82.6473 116 83.7273 116 84.7533 116C85.7793 115.892 86.1033 115.568 86.2113 114.488V110.87C86.2653 107.252 86.2653 105.47 86.2653 105.578C86.2653 104.606 86.4813 103.904 86.9133 103.364C87.1833 103.04 87.7773 103.04 88.0473 103.364C88.3173 103.688 88.6413 104.228 88.9653 105.038C89.1813 105.524 89.9373 107.468 91.2333 110.762C91.9893 112.706 92.3673 113.732 92.4213 113.948C92.9613 115.46 93.9873 116.108 95.4453 116H96.9573ZM103.653 115.568C101.439 110.168 99.6033 105.632 97.6593 100.826C97.1193 99.476 96.2013 97.316 95.8233 96.452C94.6893 93.698 94.6893 93.698 95.2293 92.672C97.9833 87.164 99.3333 84.68 100.035 83.222C100.305 82.682 100.575 82.142 100.737 81.71C100.899 81.332 100.683 80.846 100.305 80.846H99.1713L99.0633 81.008C98.0913 83.006 97.6053 83.924 93.1233 92.78C92.8533 93.374 92.7993 93.86 93.0693 94.454C93.4473 95.318 93.9873 96.398 94.5273 97.748C96.4713 102.554 98.5233 107.684 100.737 113.084C102.357 117.08 101.871 116.972 96.9573 116.972H95.2293C95.8233 118.268 96.7953 118.646 98.1453 118.646H101.925C104.031 118.646 104.571 117.674 103.653 115.568ZM87.5613 85.598C87.9393 84.842 88.6413 83.546 88.9113 82.952C88.9113 81.872 88.8573 81.008 87.7773 80.954H87.1833V82.952C87.1833 83.924 87.1293 84.896 87.1293 85.49C87.1293 85.868 87.3993 85.922 87.5613 85.598ZM87.3453 105.038C87.2913 105.308 87.2913 105.578 87.2913 105.956L87.1833 110.87V114.542C87.0213 116.108 86.3193 116.81 84.8073 116.972H82.9713C83.0253 117.08 83.0253 117.188 83.0253 117.296C83.0793 118.268 83.4033 118.646 84.3213 118.646C85.3473 118.7 86.4273 118.7 87.4533 118.7C88.4793 118.592 88.8033 118.268 88.9113 117.188V113.57C88.9653 110.006 88.9653 108.224 88.9653 108.278V107.738L87.9393 105.2C87.6153 104.444 87.3993 104.66 87.3453 105.038ZM107.324 80.9V113.138C107.324 116 107.486 116.108 110.348 116.108C111.644 116.108 114.074 116.54 114.668 114.812C114.776 114.434 114.938 114.002 115.208 113.192C118.124 104.714 119.042 101.744 119.258 100.934C119.474 100.286 119.636 99.638 119.852 98.99C120.068 98.234 120.878 98.504 121.148 99.152C121.31 99.584 121.364 100.34 121.364 101.474V113.192C121.364 116.108 121.418 116.108 124.442 116.108H126.332C128.006 115.892 127.79 114.542 127.79 112.814V81.224C127.79 79.55 127.898 78.254 126.656 78.2H121.526C120.878 78.2 120.392 78.578 120.176 79.334C120.068 79.712 119.852 80.414 119.528 81.386L115.532 94.886C115.424 95.21 115.316 95.48 115.208 95.696C114.938 96.344 114.236 96.344 114.02 95.696C113.75 94.832 113.75 94.454 113.75 92.672C113.696 84.626 113.696 80.684 113.696 80.9C113.696 78.254 113.588 78.146 110.942 78.146C110.024 78.146 109.16 78.146 108.35 78.254C107.216 78.308 107.324 79.658 107.324 80.9ZM114.668 80.846L114.722 89.648V92.726C114.722 93.266 115.046 93.266 115.208 92.726L116.018 89.81L116.396 88.514V83.6C116.396 81.332 116.342 80.954 114.668 80.846ZM129.356 80.9H128.762V112.814C128.762 114.488 129.14 116.756 126.386 117.08H124.064C124.172 118.808 124.604 118.808 127.142 118.808C130.436 118.808 130.49 117.998 130.49 114.812V83.924C130.49 82.25 130.598 80.9 129.356 80.9ZM120.068 101.474L118.934 105.308C118.394 107.198 117.368 109.79 116.126 113.516L115.586 115.136C114.776 117.62 111.536 117.08 110.348 117.08H110.024C110.132 118.754 110.672 118.808 113.048 118.808C115.748 118.808 116.396 117.944 117.098 115.892C118.826 110.816 119.528 108.71 120.392 105.686L120.5 101.528C120.5 101.204 120.176 101.15 120.068 101.474ZM166.654 87.92L166.708 105.794C166.708 106.388 166.546 107.792 166.114 110.006C166.06 110.492 165.844 110.924 165.574 111.41C161.308 118.268 152.344 117.836 148.888 111.356C148.24 110.168 147.97 108.764 147.97 107.036C148.024 91.16 147.97 88.298 147.97 86.786C147.862 83.6 149.374 80.9 152.506 78.632C153.154 78.146 153.748 77.876 154.45 77.768C158.716 77.12 161.416 77.714 163.684 79.874C165.952 81.98 166.654 85.058 166.654 87.92ZM159.58 108.008C159.796 107.522 159.904 106.82 159.904 105.956V87.704C159.904 86.948 159.796 86.354 159.634 85.814C158.77 83.168 154.774 83.492 154.396 86.246C154.342 86.57 154.342 87.11 154.342 87.974V105.578C154.342 106.658 154.396 107.468 154.612 107.9C155.476 110.114 158.608 110.168 159.58 108.008ZM169.408 105.956L169.354 90.62C169.354 88.46 168.976 86.138 167.734 84.248C167.464 83.762 167.14 83.978 167.248 84.464C167.518 85.544 167.626 86.732 167.626 87.92L167.68 105.794C167.68 107.468 167.302 110.222 166.384 111.95C163.792 116.108 159.418 117.728 155.368 117.242C154.936 117.188 154.774 117.674 155.206 117.782C162.172 119.726 169.462 116.486 169.408 105.956ZM155.368 86.354C155.314 87.11 155.314 87.326 155.314 87.974V105.578C155.314 106.712 155.368 107.306 155.476 107.522C155.8 108.386 156.61 108.71 157.312 108.602C157.15 108.224 157.042 107.36 157.042 106.226V88.622C157.042 87.758 157.042 87.218 157.096 86.894C157.204 86.192 157.528 85.652 158.014 85.274C157.096 84.68 155.476 84.896 155.368 86.354ZM187.744 78.2H174.784C173.542 78.2 172.894 78.092 172.462 78.47C172.3 78.632 172.138 78.956 172.138 79.388C172.084 80.63 172.084 81.872 172.138 83.006C172.192 84.086 172.57 84.356 173.65 84.41C173.866 84.464 174.298 84.464 174.892 84.464C175.972 84.464 177.052 84.464 177.592 85.058C178.078 85.598 178.078 86.3 178.078 88.136V113.03C178.078 114.65 177.862 115.946 179.266 116C180.562 116.054 181.912 116.054 183.316 116C184.612 115.892 184.45 114.65 184.45 112.706V88.676C184.45 86.57 184.396 85.652 185.044 85.058C185.692 84.41 186.826 84.464 187.906 84.464C188.878 84.464 189.634 84.464 190.066 84.086C190.228 83.87 190.336 83.546 190.336 83.06C190.39 82.628 190.39 81.818 190.39 80.738C190.39 78.2 190.282 78.2 187.744 78.2ZM191.362 80.9C191.362 81.872 191.308 82.628 191.308 83.114C191.308 83.816 191.2 84.464 190.876 84.842C190.174 85.544 188.932 85.436 187.906 85.436C186.34 85.436 185.962 85.49 185.746 85.76C185.476 85.976 185.422 86.57 185.422 88.676V112.706C185.422 114.596 185.692 116.756 183.37 116.972C182.506 117.026 181.642 117.026 180.778 117.026C180.778 117.998 180.94 118.646 181.966 118.7C183.262 118.754 183.424 118.808 184.828 118.7C186.826 118.538 187.15 117.35 187.15 115.406V91.376C187.15 88.244 187.15 87.596 187.42 87.326C187.798 87.002 188.23 86.948 189.904 86.948C190.984 86.948 191.794 86.786 192.442 86.138C193.09 85.49 193.09 85.004 193.09 83.438C193.09 81.224 193.036 80.954 191.362 80.9ZM174.892 85.436H174.838V85.706C174.892 86.786 175.27 87.056 176.35 87.11C176.512 87.164 176.782 87.164 177.106 87.164C177.106 86.084 176.998 85.868 176.89 85.706C176.674 85.49 176.242 85.436 174.892 85.436ZM227.087 87.92L227.141 105.794C227.141 106.388 226.979 107.792 226.547 110.006C226.493 110.492 226.277 110.924 226.007 111.41C221.741 118.268 212.777 117.836 209.321 111.356C208.673 110.168 208.403 108.764 208.403 107.036C208.457 91.16 208.403 88.298 208.403 86.786C208.295 83.6 209.807 80.9 212.939 78.632C213.587 78.146 214.181 77.876 214.883 77.768C219.149 77.12 221.849 77.714 224.117 79.874C226.385 81.98 227.087 85.058 227.087 87.92ZM220.013 108.008C220.229 107.522 220.337 106.82 220.337 105.956V87.704C220.337 86.948 220.229 86.354 220.067 85.814C219.203 83.168 215.207 83.492 214.829 86.246C214.775 86.57 214.775 87.11 214.775 87.974V105.578C214.775 106.658 214.829 107.468 215.045 107.9C215.909 110.114 219.041 110.168 220.013 108.008ZM229.841 105.956L229.787 90.62C229.787 88.46 229.409 86.138 228.167 84.248C227.897 83.762 227.573 83.978 227.681 84.464C227.951 85.544 228.059 86.732 228.059 87.92L228.113 105.794C228.113 107.468 227.735 110.222 226.817 111.95C224.225 116.108 219.851 117.728 215.801 117.242C215.369 117.188 215.207 117.674 215.639 117.782C222.605 119.726 229.895 116.486 229.841 105.956ZM215.801 86.354C215.747 87.11 215.747 87.326 215.747 87.974V105.578C215.747 106.712 215.801 107.306 215.909 107.522C216.233 108.386 217.043 108.71 217.745 108.602C217.583 108.224 217.475 107.36 217.475 106.226V88.622C217.475 87.758 217.475 87.218 217.529 86.894C217.637 86.192 217.961 85.652 218.447 85.274C217.529 84.68 215.909 84.896 215.801 86.354ZM248.178 78.2H235.218C233.976 78.2 233.328 78.092 232.896 78.47C232.734 78.632 232.572 78.956 232.572 79.388C232.518 80.63 232.518 81.872 232.572 83.006C232.626 84.086 233.004 84.356 234.084 84.41C234.3 84.464 234.732 84.464 235.326 84.464C236.406 84.464 237.486 84.464 238.026 85.058C238.512 85.598 238.512 86.3 238.512 88.136V113.03C238.512 114.65 238.296 115.946 239.7 116C240.996 116.054 242.346 116.054 243.75 116C245.046 115.892 244.884 114.65 244.884 112.706V88.676C244.884 86.57 244.83 85.652 245.478 85.058C246.126 84.41 247.26 84.464 248.34 84.464C249.312 84.464 250.068 84.464 250.5 84.086C250.662 83.87 250.77 83.546 250.77 83.06C250.824 82.628 250.824 81.818 250.824 80.738C250.824 78.2 250.716 78.2 248.178 78.2ZM251.796 80.9C251.796 81.872 251.742 82.628 251.742 83.114C251.742 83.816 251.634 84.464 251.31 84.842C250.608 85.544 249.366 85.436 248.34 85.436C246.774 85.436 246.396 85.49 246.18 85.76C245.91 85.976 245.856 86.57 245.856 88.676V112.706C245.856 114.596 246.126 116.756 243.804 116.972C242.94 117.026 242.076 117.026 241.212 117.026C241.212 117.998 241.374 118.646 242.4 118.7C243.696 118.754 243.858 118.808 245.262 118.7C247.26 118.538 247.584 117.35 247.584 115.406V91.376C247.584 88.244 247.584 87.596 247.854 87.326C248.232 87.002 248.664 86.948 250.338 86.948C251.418 86.948 252.228 86.786 252.876 86.138C253.524 85.49 253.524 85.004 253.524 83.438C253.524 81.224 253.47 80.954 251.796 80.9ZM235.326 85.436H235.272V85.706C235.326 86.786 235.704 87.056 236.784 87.11C236.946 87.164 237.216 87.164 237.54 87.164C237.54 86.084 237.432 85.868 237.324 85.706C237.108 85.49 236.676 85.436 235.326 85.436ZM276.861 109.628C278.859 109.628 278.913 109.736 278.913 112.166V120.374C278.913 123.02 278.859 123.128 276.213 123.128C275.133 123.128 274.377 123.128 273.837 123.074C272.325 122.966 272.541 121.778 272.541 119.726C272.541 119.024 272.487 118.052 272.487 117.944C272.325 116.27 271.947 116 270.165 116H258.555C256.773 116 256.773 114.92 256.773 113.57V81.656C256.773 79.712 256.773 79.01 257.151 78.578C257.583 78.146 258.501 78.2 260.337 78.2C262.983 78.2 263.199 78.416 263.199 80.954V106.226C263.199 107.846 263.037 109.25 264.603 109.358C266.169 109.466 268.491 109.682 268.923 108.17C269.085 107.63 269.139 106.874 269.139 105.848L269.193 81.008C269.193 79.55 269.031 78.362 270.381 78.254C270.867 78.2 271.569 78.2 272.487 78.2C275.403 78.2 275.565 78.308 275.565 81.17V108.386C275.565 109.196 275.889 109.628 276.861 109.628ZM264.171 106.226C264.171 108.224 264.171 108.332 264.657 108.386C265.143 108.44 265.521 108.44 265.899 108.44V83.654C265.899 81.548 265.737 81.062 264.171 80.954V106.226ZM278.265 83.87C278.265 81.548 278.157 81.008 276.537 80.954V108.008C276.537 108.44 276.645 108.656 277.077 108.656C277.617 108.656 277.887 108.656 278.265 108.764V83.87ZM279.885 112.328V120.374C279.885 123.614 279.453 124.1 276.213 124.1H275.241C275.295 125.126 275.511 125.72 276.537 125.774C277.077 125.828 277.833 125.828 278.913 125.828C281.073 125.828 281.613 125.288 281.613 123.074V114.866C281.613 112.598 281.559 112.328 279.885 112.328ZM270.165 116.972H259.473C259.527 117.998 259.797 118.7 261.255 118.7H271.569C271.515 118.376 271.515 118.106 271.515 117.998C271.407 116.972 271.461 116.972 270.165 116.972ZM303.782 112.76C303.728 112.328 299.894 89.702 298.382 80.738C298.22 79.874 298.004 78.902 297.626 78.524C297.41 78.362 296.978 78.254 296.438 78.2H291.524C289.796 78.2 289.364 78.524 289.04 80.306C288.554 83.276 284.72 105.848 283.424 113.192C283.208 114.758 282.83 115.892 284.342 115.946C285.476 116 286.88 116 288.554 115.946C289.31 115.946 289.742 115.568 289.904 114.758C290.336 112.274 290.606 110.816 290.66 110.384C290.984 107.63 291.416 107.522 294.224 107.522C294.224 107.522 294.386 107.522 294.656 107.576C296.546 107.63 296.654 110.222 296.708 110.762C296.816 111.194 296.87 111.842 296.978 112.652C297.194 114.38 297.248 115.19 297.734 115.622C297.95 115.838 298.274 115.946 298.814 116C299.246 116 303.08 116.162 303.566 115.676C303.998 115.298 304.052 114.326 303.782 112.76ZM306.968 115.46C307.022 115.46 301.514 83.546 301.514 83.492C301.352 82.628 301.136 81.656 300.758 81.278C300.434 81.062 300.272 80.954 299.408 80.954C299.786 83.168 300.11 85.166 300.434 86.894C300.92 90.026 303.89 107.522 304.322 109.952C304.592 111.734 304.7 112.382 304.754 112.598C305.078 114.596 305.186 115.838 304.808 116.27C304.16 117.026 303.026 117.026 300.488 117.026C300.272 117.026 300.056 116.972 299.894 116.972C300.002 117.674 300.11 118.052 300.434 118.322C300.65 118.538 300.974 118.7 301.514 118.7C305.888 118.7 306.158 118.7 306.86 118.106C307.292 117.728 307.238 117.026 306.968 115.46ZM295.304 100.88C295.196 101.582 292.172 101.636 292.172 100.826C292.172 100.664 292.172 100.394 292.226 100.124C292.388 97.856 292.712 96.182 293.09 95.156C293.306 94.778 293.9 94.562 294.224 95.156C294.386 95.48 294.494 95.75 294.548 95.966C294.548 96.128 295.142 98.99 295.25 99.962C295.304 100.448 295.304 100.772 295.304 100.88ZM294.224 100.34V100.07C294.17 99.53 293.9 98.18 293.738 97.316C293.684 97.1 293.684 96.992 293.63 96.83C293.468 97.64 293.306 98.72 293.198 100.178V100.34C293.198 100.34 293.198 100.34 293.198 100.394H293.684C293.9 100.394 294.116 100.394 294.224 100.34ZM294.602 108.602H294.494L294.44 108.548H294.224C293.36 108.548 292.334 108.548 292.118 108.71C291.848 108.926 291.686 110.06 291.632 110.492C291.632 110.816 291.47 111.464 291.308 112.652L290.876 114.974C290.66 116.216 289.796 116.918 288.554 116.918C287.744 116.972 286.934 116.972 286.232 116.972H285.962C285.854 117.944 285.908 118.592 287.042 118.646C288.176 118.7 288.446 118.646 290.12 118.646C291.902 118.646 292.334 117.242 292.496 116.432C292.928 114.002 292.982 113.516 293.036 113.084C293.36 110.6 293.468 110.276 295.628 110.222C295.358 108.602 294.818 108.602 294.602 108.602ZM355.246 96.182C355.57 96.344 355.678 96.614 355.678 96.992C355.678 97.316 355.57 97.532 355.246 97.748L353.086 98.99L353.14 105.794C353.14 106.388 352.978 107.792 352.546 110.006C352.492 110.492 352.276 110.924 352.006 111.41C347.74 118.268 338.776 117.836 335.32 111.356C334.672 110.168 334.402 108.764 334.402 107.036V100.448C333.538 100.232 332.512 100.34 331.918 100.394C330.352 100.556 330.514 101.906 330.514 103.418V113.246C330.514 115.784 330.298 116 327.652 116C325.816 116 324.898 116.054 324.466 115.622C324.088 115.19 324.088 114.488 324.088 112.544V99.098L321.928 97.856C321.658 97.694 321.496 97.478 321.496 97.1C321.496 96.776 321.658 96.506 321.928 96.344L324.088 95.102V80.738C324.088 79.388 324.196 78.632 324.466 78.362C325.006 77.876 328.246 77.93 329.272 78.038C330.73 78.146 330.514 79.388 330.514 81.008V89.972C330.514 91.7 330.406 92.78 331 93.374C331.648 93.968 332.998 93.968 334.402 93.752V86.786C334.294 83.6 335.806 80.9 338.938 78.632C339.586 78.146 340.18 77.876 340.882 77.768C345.148 77.12 347.848 77.714 350.116 79.874C352.384 81.98 353.086 85.058 353.086 87.92V94.94L355.246 96.182ZM331.486 89.972C331.486 91.754 331.324 92.51 331.81 92.78C332.08 92.942 332.512 92.942 333.214 92.888V83.708C333.214 82.088 333.43 80.846 331.972 80.738C331.864 80.738 331.702 80.738 331.486 80.684V89.972ZM346.336 105.956V87.704C346.336 86.948 346.228 86.354 346.066 85.814C345.202 83.168 341.206 83.492 340.828 86.246C340.774 86.57 340.774 87.11 340.774 87.974V105.578C340.774 106.658 340.828 107.468 341.044 107.9C341.908 110.114 345.04 110.168 346.012 108.008C346.228 107.522 346.336 106.82 346.336 105.956ZM354.004 94.562L355.732 95.534V90.62C355.732 88.46 355.354 86.138 354.112 84.248C353.842 83.762 353.518 83.978 353.626 84.464C353.896 85.544 354.004 86.732 354.004 87.92V94.562ZM341.8 86.354V86.408C341.746 86.624 341.746 86.894 341.746 87.974V105.578C341.746 106.712 341.8 107.306 341.908 107.522C342.124 108.116 342.664 108.494 343.204 108.602V88.784C343.204 87.92 343.204 87.38 343.258 87.056C343.42 86.192 343.852 85.598 344.446 85.22C343.474 84.626 341.962 85.004 341.8 86.354ZM357.892 99.044L356.38 98.18C356.164 98.396 355.948 98.558 355.678 98.72L354.004 99.692L354.058 105.794C354.058 107.468 353.68 110.222 352.762 111.95C350.17 116.108 345.796 117.728 341.746 117.242C341.314 117.188 341.152 117.674 341.584 117.782C348.55 119.726 355.84 116.486 355.786 105.956L355.732 101.852L357.892 100.61C358.216 100.394 358.324 100.178 358.324 99.854C358.324 99.476 358.216 99.206 357.892 99.044ZM332.026 101.312C331.486 101.366 331.486 101.474 331.486 103.418V113.246C331.486 116.378 330.838 116.972 327.652 116.972H326.788C326.842 117.674 326.95 118.052 327.166 118.322C327.598 118.754 328.516 118.7 330.352 118.7C332.998 118.7 333.214 118.484 333.214 115.946V103.418C333.214 101.744 333.322 101.312 332.944 101.312C332.458 101.258 332.404 101.258 332.026 101.312ZM379.916 90.08V93.752C379.754 97.37 377.486 100.34 374.084 101.636C373.544 101.852 372.788 101.96 371.816 102.014C370.574 102.014 369.764 102.068 369.494 102.122C367.658 102.338 367.928 103.634 367.928 105.362V113.84C367.928 114.812 367.766 115.46 367.55 115.676C367.064 116.162 364.418 116.108 362.744 116C361.448 115.892 361.556 114.704 361.556 113.408V80.792C361.556 78.146 361.61 78.092 364.31 78.092H367.442H370.52C373.76 78.092 379.322 79.496 379.862 86.03C379.916 86.192 379.916 87.542 379.916 90.08ZM373.814 92.726C374.3 89.054 374.192 84.896 370.196 84.572C367.334 84.356 367.928 85.544 367.928 90.026C367.982 93.104 367.982 90.89 367.982 94.346C368.036 95.21 368.522 95.75 369.494 95.912C371.546 96.236 373.49 94.886 373.814 92.726ZM382.4 88.73C382.238 86.948 381.752 85.598 381.266 84.896C380.888 84.356 380.672 84.464 380.726 85.004C380.78 85.328 380.834 85.652 380.834 85.976C380.888 86.408 380.888 87.434 380.888 90.08V93.752C380.888 97.694 378.242 101.096 374.462 102.554C373.814 102.77 373.004 102.932 371.87 102.986H371.816C369.278 102.986 368.9 103.202 368.9 105.794V113.84C368.9 115.028 368.684 115.946 368.252 116.378C367.712 116.918 366.362 117.08 364.256 117.026C364.31 117.944 364.472 118.592 365.444 118.7C366.578 118.754 367.658 118.754 368.684 118.646C369.872 118.538 370.628 117.62 370.628 116V108.062C370.628 104.876 370.358 104.93 372.194 104.714C373.382 104.552 375.758 103.958 376.46 103.634C379.646 102.068 382.616 99.26 382.616 93.752V92.78C382.616 90.242 382.454 88.892 382.4 88.73ZM371.546 85.976C371.168 85.706 370.682 85.598 370.142 85.544C368.63 85.436 368.954 85.112 368.954 89.108V94.292C369.008 94.724 369.17 94.886 369.656 94.94C369.98 94.994 370.358 94.994 370.682 94.94C370.682 92.51 370.682 94.238 370.628 91.43C370.628 87.866 370.25 86.354 371.546 85.976ZM386.394 80.9V113.138C386.394 116 386.556 116.108 389.418 116.108C390.714 116.108 393.144 116.54 393.738 114.812C393.846 114.434 394.008 114.002 394.278 113.192C397.194 104.714 398.112 101.744 398.328 100.934C398.544 100.286 398.706 99.638 398.922 98.99C399.138 98.234 399.948 98.504 400.218 99.152C400.38 99.584 400.434 100.34 400.434 101.474V113.192C400.434 116.108 400.488 116.108 403.512 116.108H405.402C407.076 115.892 406.86 114.542 406.86 112.814V81.224C406.86 79.55 406.968 78.254 405.726 78.2H400.596C399.948 78.2 399.462 78.578 399.246 79.334C399.138 79.712 398.922 80.414 398.598 81.386L394.602 94.886C394.494 95.21 394.386 95.48 394.278 95.696C394.008 96.344 393.306 96.344 393.09 95.696C392.82 94.832 392.82 94.454 392.82 92.672C392.766 84.626 392.766 80.684 392.766 80.9C392.766 78.254 392.658 78.146 390.012 78.146C389.094 78.146 388.23 78.146 387.42 78.254C386.286 78.308 386.394 79.658 386.394 80.9ZM393.738 80.846L393.792 89.648V92.726C393.792 93.266 394.116 93.266 394.278 92.726L395.088 89.81L395.466 88.514V83.6C395.466 81.332 395.412 80.954 393.738 80.846ZM408.426 80.9H407.832V112.814C407.832 114.488 408.21 116.756 405.456 117.08H403.134C403.242 118.808 403.674 118.808 406.212 118.808C409.506 118.808 409.56 117.998 409.56 114.812V83.924C409.56 82.25 409.668 80.9 408.426 80.9ZM399.138 101.474L398.004 105.308C397.464 107.198 396.438 109.79 395.196 113.516L394.656 115.136C393.846 117.62 390.606 117.08 389.418 117.08H389.094C389.202 118.754 389.742 118.808 392.118 118.808C394.818 118.808 395.466 117.944 396.168 115.892C397.896 110.816 398.598 108.71 399.462 105.686L399.57 101.528C399.57 101.204 399.246 101.15 399.138 101.474ZM431.77 116C433.228 115.946 433.012 114.65 433.012 112.868V80.954C433.012 79.604 432.904 78.794 432.634 78.524C432.148 78.038 430.582 78.146 427.45 78.146H425.668C419.782 78.146 414.922 81.44 414.76 86.354C414.706 87.812 414.706 89.702 414.76 94.67C414.76 95.912 415.3 97.208 416.326 98.504C417.082 99.422 417.244 100.556 416.92 101.906C416.434 103.634 415.462 107.306 414.004 113.03C413.788 113.732 413.68 114.38 413.626 114.866C413.518 115.406 413.842 115.892 414.436 115.946C415.894 116.108 417.514 116.108 419.296 116C420.484 115.838 420.646 114.596 420.97 113.084C421.132 112.274 421.51 110.816 422.05 108.71L423.076 104.336C423.292 103.31 423.562 101.906 425.128 102.122C426.694 102.338 426.586 103.796 426.64 105.47V113.084C426.64 114.704 426.424 115.946 427.936 116C429.178 116.054 430.474 116.054 431.77 116ZM435.334 81.224C435.01 80.9 434.578 80.9 433.984 80.954V112.868C433.984 114.596 434.362 116.864 431.824 116.972C431.014 117.026 430.15 117.026 429.34 117.026C429.34 117.998 429.556 118.646 430.636 118.7C431.878 118.754 432.202 118.7 433.498 118.646C435.28 118.592 435.712 117.944 435.712 115.568V83.654C435.712 82.304 435.604 81.494 435.334 81.224ZM426.586 90.188C426.586 92.564 426.532 94.076 426.532 94.184C426.532 95.102 426.1 95.642 425.182 95.912C423.184 96.398 421.294 95.21 420.862 93.212C420.808 92.888 420.754 92.672 420.754 92.564L420.862 89C420.916 85.436 421.834 84.626 425.236 84.626C427.18 84.626 426.586 85.706 426.586 90.188ZM421.834 89.054L421.726 92.51C421.672 93.752 422.266 94.508 423.454 94.886L423.562 89.54C423.616 87.272 423.994 86.138 425.074 85.598C422.32 85.598 421.942 86.084 421.834 89.054ZM425.02 103.094C424.426 102.986 424.318 103.202 424.048 104.552L422.968 108.926C422.428 111.032 422.104 112.49 421.942 113.3C421.618 114.758 421.348 116.702 419.404 116.972C418.27 117.026 417.298 117.08 416.38 117.026C416.38 117.242 416.326 117.404 416.326 117.566C416.218 118.106 416.542 118.592 417.136 118.646C418.594 118.808 420.214 118.808 421.996 118.7C423.184 118.538 423.346 117.296 423.67 115.784C423.832 114.974 424.21 113.516 424.75 111.41L425.668 107.522V105.47C425.614 103.364 425.56 103.148 425.02 103.094Z" fill="white"/>
</svg>
