<svg width="100" height="100" viewBox="0 0 100 100" fill="none" xmlns="http://www.w3.org/2000/svg">
<circle cx="50" cy="50" r="50" fill="#CACACA"/>
<path d="M49.22 72C47.6 72 46.16 72.12 46.04 70.8C45.98 70.14 45.92 69.36 45.92 68.46C45.92 65.52 45.92 61.62 45.92 56.58V44.76C45.92 41.82 45.74 40.38 44 40.26C43.7 40.26 42.26 40.26 41.66 40.14C39.98 40.02 40.22 38.28 40.34 36.18C40.4 35.52 40.76 35.1 41.48 34.8C41.6 34.74 42.26 34.56 42.38 34.5C44.42 33.78 45.92 32.7 46.82 31.2C47.48 30.24 48.38 29.76 49.64 29.82H49.82C52.28 29.76 52.58 30.06 52.58 32.52V51V68.76C52.58 72 52.52 72 49.22 72ZM53.66 32.82V68.76C53.66 72.66 53.18 73.08 49.22 73.08H48.98C48.98 73.32 49.04 73.56 49.04 73.8C49.16 75.12 50.6 75 52.22 75C55.52 75 55.58 75 55.58 71.76V35.52C55.58 33.36 55.34 32.88 53.66 32.82ZM43.94 41.34H42.26C42.26 43.38 43.04 43.74 44.78 43.74C44.72 41.7 44.54 41.4 43.94 41.34Z" fill="black"/>
</svg>
