<svg width="100" height="100" viewBox="0 0 100 100" fill="none" xmlns="http://www.w3.org/2000/svg">
<circle cx="50" cy="50" r="50" fill="#CACACA"/>
<path d="M41.4 71C39.96 71 39.18 71 38.7 70.58C38.52 70.4 38.34 69.98 38.34 69.44C38.22 67.76 37.98 64.82 39.48 62.6L44.22 55.82C47.52 51.2 49.44 48.26 50.22 47C51.84 44.24 52.68 41.48 52.44 38.9C52.26 37.46 51.18 35.72 49.26 35.6C47.34 35.54 45.9 37.22 45.54 39.5C45.54 39.62 45.42 40.7 45.36 40.94C45.18 42.14 44.88 42.44 43.68 42.56C40.98 42.68 38.34 42.92 38.34 40.82C38.4 36.2 40.08 32.72 43.26 30.32C43.44 30.14 43.62 30.02 43.86 29.9C46.26 28.4 52.26 28.46 54.72 30.32C62.46 36.14 59.58 45.44 56.04 50.72L49.56 60.38C48.54 61.94 48.06 62.54 48.42 63.26C48.78 63.92 49.56 63.92 51.36 63.92H53.76C55.74 63.92 56.82 63.92 57.78 64.04C58.5 64.16 58.92 64.58 58.98 65.3C59.16 66.8 59.16 68.3 58.98 69.8C58.86 71.18 57.6 71 55.32 71H41.4ZM56.94 51.32L50.46 60.98C49.38 62.6 49.56 62.84 51.36 62.84C54.3 58.52 56.64 55.04 58.38 52.4C61.32 48.02 63.9 41.48 60.9 36.74C60.54 36.14 60.18 36.32 60.36 36.98C61.38 41.3 60.24 46.4 56.94 51.32ZM49.2 36.68C47.1 36.68 46.68 38.66 46.44 40.94C46.26 42.86 45.54 43.46 43.8 43.64H43.74C42.96 43.7 42.18 43.7 41.34 43.7V43.82C41.34 45.56 43.38 45.38 44.88 45.32C47.1 45.2 47.7 44.66 47.88 42.44C48.3 38 48.78 37.52 50.76 37.52C50.58 37.04 50.04 36.68 49.2 36.68ZM60.78 66.98H60.18C60.24 67.94 60.18 68.96 60.06 69.92C59.82 72.38 57.54 72.08 55.32 72.08H41.34V72.44C41.34 72.98 41.52 73.4 41.7 73.58C42.18 74 42.96 74 44.4 74H58.32C60.6 74 61.86 73.46 61.98 72.08C62.16 70.58 62.16 69.74 61.98 68.24C61.92 67.52 61.5 66.98 60.78 66.98Z" fill="black"/>
</svg>
