<svg width="100" height="100" viewBox="0 0 100 100" fill="none" xmlns="http://www.w3.org/2000/svg">
<circle cx="50" cy="50" r="50" fill="#CACACA"/>
<path d="M49.62 71C47.88 71 46.8 70.94 46.32 70.82C42.66 69.92 40.2 67.52 38.82 63.74C38.7 63.38 38.64 62.96 38.64 62.36C38.46 59.6 38.76 59.24 41.34 59.24C41.58 59.24 42.42 59.18 43.92 59C44.52 58.94 44.94 59.24 45.18 59.84C45.78 61.82 45.72 62.18 46.92 63.08C48.9 64.64 51.84 63.5 52.14 61.04C52.5 58.1 52.8 53.54 48.66 52.4L47.7 52.22C45.96 51.86 45.78 51.68 45.66 49.94V48.74C45.66 46.28 45.72 46.16 48.06 45.56C52.32 44.48 53.04 39.56 52.5 37.28C51.72 34.22 47.88 33.86 46.74 36.92C46.68 37.1 46.56 37.4 46.5 37.82L46.26 38.72C46.02 39.5 45.48 39.86 44.7 39.92H40.92C40.08 39.86 39.66 39.44 39.54 38.6C39.06 33.32 42.9 28.16 48.78 28.16H49.92C54.54 28.16 58.98 32.24 58.86 37.46L58.8 41.18C58.74 43.4 58.08 45.2 56.7 46.52L56.1 47.24C55.14 48.5 56.1 49.22 57 50.36L57.96 51.56C58.92 52.94 59.34 54.32 59.34 56C59.34 56.42 59.28 58.22 59.28 61.4C59.28 66.5 54.66 71.06 49.62 71ZM61.86 41.18V40.46C61.86 39.38 61.74 38.36 61.38 37.4C61.08 36.56 60.72 35.78 60.18 35.06C59.94 34.7 59.64 34.82 59.76 35.3C59.94 36.02 60 36.74 59.94 37.58L59.88 41.18C59.82 43.7 58.98 45.8 57.48 47.24C57.24 47.54 57.12 47.72 56.94 47.9C56.64 48.26 57.24 48.98 58.08 50C61.14 47.12 61.86 43.4 61.86 41.18ZM49.8 36.02C47.7 36.02 47.7 37.64 47.64 38.24C47.46 40.16 46.98 41 44.7 41H42.54V41.12C42.54 42.86 44.58 42.68 46.08 42.62C48.3 42.5 48.84 41.96 49.08 39.74C49.14 39.2 49.38 36.86 51.36 36.86C51.18 36.38 50.64 36.02 49.8 36.02ZM47.82 53.36C47.94 55.7 48.12 55.52 51 56.12C50.46 54.44 49.56 53.6 47.82 53.36ZM62.34 59C62.34 57.74 61.98 55.94 60.78 54.38C60.42 53.96 60.24 54.26 60.3 54.56C60.48 55.94 60.36 58.52 60.36 61.4C60.36 67.1 55.26 72.14 49.62 72.08C48.72 72.08 46.86 71.96 45.84 71.78C45.6 71.72 45.42 72.02 45.66 72.2C47.34 73.4 48.84 73.76 50.82 73.76C57.24 73.76 62.28 67.34 62.28 61.4C62.28 60.2 62.34 59.42 62.34 59ZM49.26 62.78C48.3 60.8 49.26 59.9 46.38 59.9C46.92 61.76 47.46 62.12 47.58 62.24C47.7 62.36 48.42 62.78 49.26 62.78Z" fill="black"/>
</svg>
